<?xml version="1.0" encoding="UTF-8"?>
<svg id="Layer_1" data-name="Layer 1" xmlns="http://www.w3.org/2000/svg" viewBox="0 0 1000 354.01">
  <defs>
    <style>
      .cls-1 {
        font-family: Roboto-Medium, Roboto;
        font-size: 30.08px;
        font-weight: 500;
        letter-spacing: .05em;
      }

      .cls-1, .cls-2 {
        fill: #ef4444;
      }

      .cls-2 {
        stroke-width: 0px;
      }
    </style>
  </defs>
  <path class="cls-2" d="M133.56,187.63v-32.99h-11.23v-30.71h11.23v-24.04h39.84v24.04h22.1v30.71h-22.1v24.21c0,7.2,3.34,9.83,9.65,9.83,3.68,0,7.73-1.05,12.11-2.98v30.71c-6.33,3.33-15.61,5.44-25.44,5.44-23.68,0-36.15-10.88-36.15-34.21"/>
  <path class="cls-2" d="M204.61,192.54v-.35c0-19.13,14.03-29.84,36.49-29.84,8.07,0,18.44,1.58,22.64,3.51v-1.58c0-8.95-5.27-13.86-17.72-13.86-9.83,0-18.08,2.11-26.5,5.44l-7.03-26.5c11.23-4.2,23.52-7.02,40.38-7.02,19.64,0,32.11,4.03,40.52,12.46,7.21,7.2,10.01,16.31,10.01,30.36v54.57h-39.84v-9.65c-6.85,7.2-15.61,11.93-27.55,11.93-18.42,0-31.41-10.53-31.41-29.48M264.08,184.29v-4.04c-2.26-.87-5.79-1.57-9.11-1.57-7.91,0-12.29,4.56-12.29,10.7v.35c0,5.62,4.04,9.3,9.13,9.3,7.03,0,12.27-5.62,12.27-14.73"/>
  <path class="cls-2" d="M318.43,123.93h39.84v13.33c6.15-7.9,15.95-15.61,29.31-15.61,20.36,0,32.81,13.16,32.81,34.92v63.17h-39.84v-50.36c0-8.25-4.74-12.99-10.87-12.99s-11.41,4.74-11.41,12.99v50.36h-39.84v-95.81Z"/>
  <path class="cls-2" d="M435.42,91.64h34.69c2.84,0,5.14,2.3,5.14,5.14v39.96c6.15-7.9,15.79-15.09,29.31-15.09,20.36,0,32.81,13.16,32.81,34.92v63.17h-39.84v-50.36c0-8.25-4.74-12.99-10.87-12.99s-11.41,4.74-11.41,12.99v50.36h-39.84V91.64Z"/>
  <path class="cls-2" d="M554.88,91.64h35.59c1.55,0,2.81,1.26,2.81,2.81v19.82c0,1.55-1.26,2.81-2.81,2.81h-35.59c-1.55,0-2.81-1.26-2.81-2.81v-19.82c0-1.55,1.26-2.81,2.81-2.81M555.01,123.93h35.34c1.24,0,2.24,1,2.24,2.24v91.33c0,1.24-1,2.24-2.24,2.24h-35.34c-1.24,0-2.24-1-2.24-2.24v-91.33c0-1.24,1-2.24,2.24-2.24"/>
  <path class="cls-2" d="M605.72,172.36v-.35c0-28.61,20.54-50.37,49.3-50.37,34.21,0,49.85,23.69,49.85,52.82,0,2.1,0,4.56-.18,6.67h-61.6c2.8,8.43,9.47,12.81,18.08,12.81,7.19,0,13.15-3.33,19.48-9.83l17.78,14.15c1.98,1.58,2.35,4.54.66,6.43-9.36,10.47-21.9,17.32-40.72,17.32-31.59,0-52.65-19.83-52.65-49.66M668.53,163.59c-.88-9.13-6.31-14.39-13.33-14.39s-11.41,5.44-12.63,14.39h25.96Z"/>
  <path class="cls-2" d="M717.46,129.06c0-2.83,2.3-5.13,5.13-5.13h34.71v11.76c6.49-7.03,13.85-14.04,28.43-14.04,23.16,0,41.24,20.18,41.24,49.49v.35c0,30.36-18.44,50.54-40.9,50.54-14.55,0-22.62-6.31-28.77-13.16v33.83c0,2.83-2.3,5.13-5.13,5.13h-29.58c-2.83,0-5.13-2.3-5.13-5.13v-113.63ZM788.34,172.01v-.36c0-9.82-6.85-17.2-15.95-17.2s-15.97,7.38-15.97,17.2v.36c0,9.47,6.85,17.2,15.97,17.2s15.95-7.38,15.95-17.2"/>
  <path class="cls-2" d="M842.53,203.24c0-10.88,7.53-18.43,18.06-18.43s17.9,7.38,18.08,18.43c0,10.88-7.19,18.43-18.24,18.43s-17.9-7.55-17.9-18.43"/>
  <text class="cls-1" transform="translate(130.01 253.91)"><tspan x="0" y="0">GRAPHIC DESIGNER | DEVELOPER</tspan></text>
</svg>