<?xml version="1.0" encoding="UTF-8"?>
<svg id="Layer_1" data-name="Layer 1" xmlns="http://www.w3.org/2000/svg" viewBox="0 0 984.44 984.44">
  <defs>
    <style>
      .cls-1 {
        fill: #fff;
      }

      .cls-1, .cls-2 {
        stroke-width: 0px;
      }

      .cls-2 {
        fill: #ef4444;
      }
    </style>
  </defs>
  <rect class="cls-2" x="0" y=".36" width="986.37" height="983.57" rx="491.78" ry="491.78"/>
  <g>
    <path class="cls-1" d="M831.66,542.34c0,16.71-11.05,28.31-28.01,28.31s-27.5-11.6-27.5-28.31,11.56-28.31,27.75-28.31,27.48,11.33,27.76,28.31Z"/>
    <path class="cls-1" d="M307.37,470.65v97.04h-61.19v-77.35c0-12.68-7.29-19.97-16.69-19.97s-17.53,7.29-17.53,19.97v77.35h-61.2v-196.78h53.31c4.36,0,7.89,3.54,7.89,7.89v61.38c9.44-12.12,24.26-23.19,45.02-23.19,31.27,0,50.4,20.23,50.4,53.65Z"/>
    <path class="cls-1" d="M393.26,375.22v30.44c0,2.38-1.92,4.33-4.31,4.33h-54.69c-2.39,0-4.31-1.94-4.31-4.33v-30.44c0-2.38,1.92-4.31,4.31-4.31h54.69c2.39,0,4.31,1.92,4.31,4.31Z"/>
    <path class="cls-1" d="M392.19,423.95v140.3c0,1.89-1.53,3.44-3.44,3.44h-54.29c-1.89,0-3.44-1.55-3.44-3.44v-140.3c0-1.91,1.55-3.44,3.44-3.44h54.29c1.91,0,3.44,1.53,3.44,3.44Z"/>
    <path class="cls-1" d="M564.68,498.13c0-44.74-24.01-81.14-76.58-81.14-44.18,0-75.72,33.42-75.72,77.37v.54c0,45.81,32.34,76.28,80.87,76.28,28.92,0,48.18-10.53,62.55-26.63,2.6-2.89,2.04-7.45-1.02-9.87l-27.32-21.74c-9.7,9.98-18.87,15.1-29.9,15.1-13.24,0-23.47-6.73-27.78-19.67h94.62c.28-3.24.28-7.02.28-10.25ZM468.99,481.42c1.86-13.75,8.88-22.11,19.39-22.11s19.13,8.09,20.48,22.11h-39.87Z"/>
    <path class="cls-1" d="M688.89,417c-22.4,0-33.7,10.79-43.67,21.58v-18.06h-53.32c-4.36,0-7.88,3.52-7.88,7.88v174.54c0,4.36,3.52,7.88,7.88,7.88h45.43c4.36,0,7.89-3.52,7.89-7.88v-51.96c9.42,10.51,21.83,20.21,44.18,20.21,34.51,0,62.83-31,62.83-77.63v-.53c0-45.03-27.76-76.04-63.34-76.04ZM692.9,494.38c0,15.08-10.51,26.41-24.51,26.41s-24.52-11.88-24.52-26.41v-.56c0-15.08,10.51-26.41,24.52-26.41s24.51,11.33,24.51,26.41v.56Z"/>
  </g>
</svg>