<?xml version="1.0" encoding="utf-8"?>
<!-- Generator: Adobe Illustrator 28.1.0, SVG Export Plug-In . SVG Version: 6.00 Build 0)  -->
<svg version="1.1" id="Layer_1" xmlns="http://www.w3.org/2000/svg" xmlns:xlink="http://www.w3.org/1999/xlink" x="0px" y="0px"
	 viewBox="0 0 53.9 43.6" style="enable-background:new 0 0 53.9 43.6;" xml:space="preserve">
<style type="text/css">
	.st0{fill:#213B68;}
	.st1{fill:#FFFFFF;}
</style>
<rect x="-0.6" class="st0" width="55.1" height="43.6"/>
<g>
	<path class="st1" d="M51.1,25.5c0,1.2-0.8,2-2,2c-1.1,0-1.9-0.8-1.9-2c0-1.2,0.8-2,2-2C50.3,23.4,51,24.3,51.1,25.5z"/>
	<path class="st1" d="M13.9,20.4v6.9H9.6v-5.5c0-0.9-0.5-1.4-1.2-1.4c-0.7,0-1.2,0.5-1.2,1.4v5.5H2.8V13.3h3.8
		c0.3,0,0.6,0.3,0.6,0.6v4.4c0.7-0.9,1.7-1.6,3.2-1.6C12.6,16.6,13.9,18,13.9,20.4z"/>
	<path class="st1" d="M20,13.6v2.2c0,0.2-0.1,0.3-0.3,0.3h-3.9c-0.2,0-0.3-0.1-0.3-0.3v-2.2c0-0.2,0.1-0.3,0.3-0.3h3.9
		C19.9,13.3,20,13.4,20,13.6z"/>
	<path class="st1" d="M19.9,17.1V27c0,0.1-0.1,0.2-0.2,0.2h-3.8c-0.1,0-0.2-0.1-0.2-0.2v-9.9c0-0.1,0.1-0.2,0.2-0.2h3.8
		C19.8,16.8,19.9,16.9,19.9,17.1z"/>
	<path class="st1" d="M32.1,22.3c0-3.2-1.7-5.8-5.4-5.8c-3.1,0-5.4,2.4-5.4,5.5v0c0,3.2,2.3,5.4,5.7,5.4c2,0,3.4-0.7,4.4-1.9
		c0.2-0.2,0.1-0.5-0.1-0.7l-1.9-1.5c-0.7,0.7-1.3,1.1-2.1,1.1c-0.9,0-1.7-0.5-2-1.4h6.7C32.1,22.8,32.1,22.5,32.1,22.3z M25.4,21.1
		c0.1-1,0.6-1.6,1.4-1.6c0.8,0,1.4,0.6,1.5,1.6H25.4z"/>
	<path class="st1" d="M40.9,16.6c-1.6,0-2.4,0.8-3.1,1.5v-1.3h-3.8c-0.3,0-0.6,0.2-0.6,0.6v12.4c0,0.3,0.2,0.6,0.6,0.6h3.2
		c0.3,0,0.6-0.2,0.6-0.6v-3.7c0.7,0.7,1.5,1.4,3.1,1.4c2.4,0,4.5-2.2,4.5-5.5v0C45.4,18.8,43.5,16.6,40.9,16.6z M41.2,22.1
		c0,1.1-0.7,1.9-1.7,1.9c-1,0-1.7-0.8-1.7-1.9v0c0-1.1,0.7-1.9,1.7-1.9C40.5,20.1,41.2,20.9,41.2,22.1L41.2,22.1z"/>
</g>
</svg>
