<?xml version="1.0" encoding="utf-8"?>
<!-- Generator: Adobe Illustrator 28.1.0, SVG Export Plug-In . SVG Version: 6.00 Build 0)  -->
<svg version="1.1" id="Layer_1" xmlns="http://www.w3.org/2000/svg" xmlns:xlink="http://www.w3.org/1999/xlink" x="0px" y="0px"
	 viewBox="0 0 141.8 59.7" style="enable-background:new 0 0 141.8 59.7;" xml:space="preserve">
<style type="text/css">
	.st0{fill:#223B67;}
</style>
<g>
	<path class="st0" d="M132.8,39.2c0,3-2,5.1-5.1,5.1c-2.9,0-5-2.1-5-5.1c0-3,2.1-5.1,5-5.1C130.7,34.1,132.7,36.1,132.8,39.2z"/>
	<path class="st0" d="M37.5,26.2v17.6H26.4V29.8c0-2.3-1.3-3.6-3-3.6c-1.7,0-3.2,1.3-3.2,3.6v14.1H9V8h9.7c0.8,0,1.4,0.6,1.4,1.4
		v11.2c1.7-2.2,4.4-4.2,8.2-4.2C34,16.4,37.5,20.1,37.5,26.2z"/>
	<path class="st0" d="M53.1,8.8v5.5c0,0.4-0.3,0.8-0.8,0.8h-9.9c-0.4,0-0.8-0.4-0.8-0.8V8.8c0-0.4,0.3-0.8,0.8-0.8h9.9
		C52.7,8,53.1,8.4,53.1,8.8z"/>
	<path class="st0" d="M52.9,17.7v25.5c0,0.3-0.3,0.6-0.6,0.6h-9.9c-0.3,0-0.6-0.3-0.6-0.6V17.7c0-0.3,0.3-0.6,0.6-0.6h9.9
		C52.6,17.1,52.9,17.3,52.9,17.7z"/>
	<path class="st0" d="M84.3,31.2c0-8.1-4.4-14.7-13.9-14.7c-8,0-13.8,6.1-13.8,14.1v0.1c0,8.3,5.9,13.9,14.7,13.9
		c5.3,0,8.8-1.9,11.4-4.8c0.5-0.5,0.4-1.4-0.2-1.8l-5-4c-1.8,1.8-3.4,2.7-5.4,2.7c-2.4,0-4.3-1.2-5-3.6h17.2
		C84.3,32.4,84.3,31.8,84.3,31.2z M66.9,28.1c0.3-2.5,1.6-4,3.5-4c2,0,3.5,1.5,3.7,4H66.9z"/>
	<path class="st0" d="M106.8,16.4c-4.1,0-6.1,2-7.9,3.9v-3.3h-9.7c-0.8,0-1.4,0.6-1.4,1.4v31.7c0,0.8,0.6,1.4,1.4,1.4h8.3
		c0.8,0,1.4-0.6,1.4-1.4v-9.4c1.7,1.9,4,3.7,8,3.7c6.3,0,11.4-5.6,11.4-14.1v-0.1C118.3,22.1,113.3,16.4,106.8,16.4z M107.6,30.5
		c0,2.7-1.9,4.8-4.5,4.8c-2.5,0-4.5-2.2-4.5-4.8v-0.1c0-2.7,1.9-4.8,4.5-4.8c2.5,0,4.5,2.1,4.5,4.8V30.5z"/>
</g>
</svg>
